<?xml version="1.0" standalone="no"?>
<!DOCTYPE svg PUBLIC "-//W3C//DTD SVG 20010904//EN"
 "http://www.w3.org/TR/2001/REC-SVG-20010904/DTD/svg10.dtd">
<svg version="1.0" xmlns="http://www.w3.org/2000/svg"
 width="478.000000pt" height="274.000000pt" viewBox="0 0 478.000000 274.000000"
 preserveAspectRatio="xMidYMid meet">

<g transform="translate(0.000000,274.000000) scale(0.100000,-0.100000)"
fill="#000000" stroke="none">
<path d="M2160 2112 c-167 -44 -296 -182 -332 -353 l-12 -59 -107 0 -107 0 -6
-62 c-3 -35 -15 -258 -28 -497 -21 -416 -23 -434 -43 -441 -11 -4 -94 -13
-185 -19 -175 -12 -523 -48 -553 -57 -12 -4 -17 -13 -15 -27 3 -20 9 -22 63
-21 33 1 152 11 265 23 113 12 258 24 324 28 l118 6 -7 -116 -7 -117 751 0
752 0 -7 120 -7 119 49 -4 c27 -3 114 -10 194 -15 80 -6 226 -20 324 -31 162
-18 181 -18 195 -4 14 13 14 17 0 30 -17 18 -250 46 -563 69 -109 8 -199 16
-201 18 -1 2 -12 194 -24 428 -12 234 -24 458 -27 498 l-6 72 -108 0 -107 0
-12 59 c-18 92 -63 171 -136 239 -125 118 -273 156 -435 114z m250 -87 c104
-37 195 -133 230 -244 11 -35 20 -67 20 -72 0 -5 -164 -9 -381 -9 l-381 0 7
38 c17 96 95 208 180 257 92 55 222 67 325 30z m-588 -462 l3 -58 35 0 35 0 3
58 3 57 379 0 379 0 3 -57 3 -58 35 0 35 0 3 58 3 57 69 0 69 0 5 -32 c5 -34
57 -1019 56 -1075 l0 -33 -663 0 -662 0 29 570 30 570 72 0 73 0 3 -57z"/>
<path d="M1982 1008 c-7 -7 -12 -21 -12 -33 0 -12 5 -26 12 -33 7 -7 21 -12
33 -12 12 0 26 5 33 12 7 7 12 21 12 33 0 12 -5 26 -12 33 -7 7 -21 12 -33 12
-12 0 -26 -5 -33 -12z"/>
<path d="M2512 1008 c-7 -7 -12 -21 -12 -33 0 -12 5 -26 12 -33 28 -28 78 -7
78 33 0 27 -18 45 -45 45 -12 0 -26 -5 -33 -12z"/>
<path d="M2316 840 c-33 -10 -86 -57 -86 -77 0 -23 25 -25 136 -8 114 16 131
23 120 50 -13 36 -104 54 -170 35z"/>
<path d="M1920 265 c-15 -18 -5 -35 20 -35 10 0 22 5 25 10 7 11 -12 40 -25
40 -4 0 -13 -7 -20 -15z"/>
<path d="M3488 255 c-10 -13 -18 -26 -18 -29 0 -12 31 -6 56 11 25 16 25 17 8
30 -23 17 -26 17 -46 -12z"/>
<path d="M4367 273 c-4 -3 -7 -15 -7 -25 0 -13 7 -18 25 -18 29 0 36 34 9 44
-19 7 -19 7 -27 -1z"/>
<path d="M2280 140 c0 -123 1 -130 20 -130 18 0 20 7 20 58 0 69 22 99 63 88
28 -7 37 -30 37 -98 0 -41 3 -48 20 -48 18 0 20 7 20 75 0 62 -4 79 -20 95
-22 22 -70 26 -101 10 -17 -10 -19 -7 -19 35 0 38 -3 45 -20 45 -19 0 -20 -7
-20 -130z"/>
<path d="M83 246 c-38 -17 -73 -69 -73 -109 0 -42 26 -90 59 -110 17 -10 50
-17 81 -17 46 0 56 4 85 33 19 19 36 48 40 69 8 44 -14 100 -49 123 -36 24
-104 29 -143 11z m126 -63 c46 -52 7 -133 -66 -133 -72 0 -112 90 -60 137 44
40 87 39 126 -4z"/>
<path d="M4700 175 c0 -66 3 -85 14 -85 18 0 26 31 26 108 0 55 -2 62 -20 62
-18 0 -20 -7 -20 -85z"/>
<path d="M3270 215 c0 -14 -4 -25 -10 -25 -5 0 -10 -7 -10 -15 0 -8 5 -15 10
-15 6 0 10 -25 10 -56 0 -76 11 -94 59 -94 21 0 40 3 44 6 12 12 -6 34 -29 34
-22 0 -24 4 -24 55 0 52 1 55 25 55 16 0 25 6 25 15 0 9 -9 15 -25 15 -20 0
-25 5 -25 25 0 20 -5 25 -25 25 -20 0 -25 -5 -25 -25z"/>
<path d="M447 182 c-34 -37 -12 -83 46 -97 32 -9 43 -23 28 -38 -7 -7 -21 -7
-48 1 -29 9 -39 9 -45 -1 -12 -20 22 -37 73 -37 55 0 72 15 67 62 -3 29 -8 35
-45 48 -56 19 -59 45 -4 37 30 -4 41 -1 46 11 8 21 -12 32 -61 32 -27 0 -46
-6 -57 -18z"/>
<path d="M647 189 c-49 -29 -58 -111 -15 -156 25 -27 102 -32 134 -9 30 22 7
39 -34 25 -27 -9 -37 -8 -57 5 -38 25 -22 36 51 36 l64 0 0 30 c0 62 -84 103
-143 69z m91 -41 c22 -22 13 -28 -38 -28 -27 0 -50 4 -50 8 0 16 25 32 50 32
14 0 31 -5 38 -12z"/>
<path d="M830 133 c0 -93 14 -117 68 -121 24 -2 50 2 58 9 10 8 14 8 14 0 0
-6 9 -11 20 -11 19 0 20 7 20 95 0 88 -1 95 -20 95 -18 0 -20 -7 -20 -58 0
-71 -15 -95 -55 -90 -30 3 -30 3 -33 76 -3 69 -4 72 -27 72 -24 0 -25 -2 -25
-67z"/>
<path d="M1224 188 c-49 -23 -60 -113 -19 -153 31 -32 112 -36 138 -7 25 28 3
44 -34 25 -26 -13 -32 -13 -54 1 -32 21 -40 52 -21 81 18 27 63 34 83 14 13
-13 33 -4 33 16 0 31 -80 46 -126 23z"/>
<path d="M1411 186 c-32 -18 -12 -30 49 -31 34 0 45 -4 48 -17 3 -15 -4 -18
-47 -18 -43 0 -53 -4 -68 -26 -15 -24 -15 -29 -2 -53 14 -24 20 -26 93 -28
l79 -2 -7 76 c-7 93 -22 113 -80 113 -23 -1 -52 -7 -65 -14z m99 -111 c0 -19
-36 -38 -60 -30 -20 6 -26 25 -13 38 13 14 73 7 73 -8z"/>
<path d="M1620 105 c0 -88 1 -95 20 -95 18 0 20 7 20 55 0 57 22 95 55 95 8 0
15 9 15 20 0 22 -20 26 -51 10 -13 -7 -19 -7 -19 0 0 5 -9 10 -20 10 -19 0
-20 -7 -20 -95z"/>
<path d="M1770 105 c0 -88 1 -95 20 -95 18 0 20 7 20 55 0 57 22 95 55 95 8 0
15 9 15 20 0 22 -20 26 -51 10 -13 -7 -19 -7 -19 0 0 5 -9 10 -20 10 -19 0
-20 -7 -20 -95z"/>
<path d="M1920 105 c0 -88 1 -95 20 -95 19 0 20 7 20 95 0 88 -1 95 -20 95
-19 0 -20 -7 -20 -95z"/>
<path d="M2030 105 c0 -88 1 -95 20 -95 17 0 20 7 20 53 0 58 20 97 50 97 35
0 50 -28 50 -91 0 -52 2 -59 20 -59 18 0 20 7 20 75 0 62 -4 79 -20 95 -22 22
-70 26 -101 10 -13 -7 -19 -7 -19 0 0 5 -9 10 -20 10 -19 0 -20 -7 -20 -95z"/>
<path d="M2543 185 c-26 -19 -47 -77 -38 -107 14 -47 45 -68 97 -68 67 0 98
30 98 95 0 63 -31 95 -92 95 -24 0 -53 -7 -65 -15z m99 -42 c24 -21 23 -58 -2
-83 -24 -24 -38 -25 -68 -4 -42 29 -20 104 30 104 12 0 30 -7 40 -17z"/>
<path d="M2897 189 c-49 -29 -58 -111 -15 -156 25 -27 102 -32 134 -9 30 22 7
39 -34 25 -27 -9 -37 -8 -57 5 -38 25 -22 36 51 36 l64 0 0 30 c0 62 -84 103
-143 69z m91 -41 c22 -22 13 -28 -38 -28 -27 0 -50 4 -50 8 0 16 25 32 50 32
14 0 31 -5 38 -12z"/>
<path d="M3098 189 c-12 -6 -18 -22 -18 -45 0 -32 4 -36 46 -54 27 -12 44 -25
41 -33 -4 -13 -41 -15 -69 -2 -23 9 -38 -23 -17 -36 24 -15 106 -10 124 7 29
29 15 66 -34 91 -24 12 -46 25 -49 28 -13 12 22 23 45 14 14 -5 29 -9 34 -9
15 0 10 37 -7 44 -24 9 -77 7 -96 -5z"/>
<path d="M3434 186 c-26 -20 -11 -31 44 -31 36 0 47 -4 50 -17 3 -15 -4 -18
-45 -18 -57 0 -73 -12 -73 -56 0 -45 17 -54 98 -53 l72 1 0 65 c0 62 -11 100
-34 115 -19 13 -91 9 -112 -6z m96 -111 c0 -19 -36 -38 -60 -30 -20 6 -26 25
-13 38 13 14 73 7 73 -8z"/>
<path d="M3759 106 c32 -86 39 -96 61 -96 23 0 29 10 62 95 l36 95 -23 0 c-19
0 -27 -10 -44 -55 -12 -31 -21 -61 -21 -67 0 -24 -20 9 -38 62 -16 46 -23 56
-44 58 l-26 3 37 -95z"/>
<path d="M3958 189 c-27 -15 -11 -42 21 -33 37 10 63 7 72 -8 13 -20 0 -28
-46 -28 -49 0 -75 -19 -75 -55 0 -42 24 -55 100 -53 l70 1 0 78 c0 69 -2 80
-22 93 -25 18 -94 21 -120 5z m102 -106 c-1 -32 -59 -53 -79 -29 -7 8 -10 20
-6 26 7 11 85 14 85 3z"/>
<path d="M4150 181 c0 -16 8 -20 46 -23 l46 -3 -46 -56 c-67 -81 -64 -89 34
-89 64 0 80 3 80 15 0 11 -12 15 -50 15 -27 0 -50 3 -50 6 0 4 23 32 50 64 71
82 68 90 -30 90 -73 0 -80 -2 -80 -19z"/>
<path d="M4360 105 c0 -88 1 -95 20 -95 19 0 20 7 20 95 0 88 -1 95 -20 95
-19 0 -20 -7 -20 -95z"/>
<path d="M4497 189 c-27 -16 -48 -72 -41 -109 19 -91 179 -95 197 -4 7 38 -10
91 -36 109 -25 17 -93 19 -120 4z m97 -48 c25 -27 17 -72 -15 -90 -24 -13 -29
-13 -53 2 -47 31 -27 107 28 107 13 0 31 -9 40 -19z"/>
<path d="M4701 46 c-16 -19 -6 -36 20 -36 15 0 20 6 17 22 -4 27 -21 33 -37
14z"/>
</g>
</svg>
